# xmcd
#
# Track frame offsets: 
#        187
#        24935
#        48877
#        74232
#        106360
#        141612
#        160432
#        184700
#
# Disc length: 3066 seconds
#
# Revision: 0
# Processed by: cddbd v1.5.2PL0 Copyright (c) Steve Scherf et al.
# Submitted via: ExactAudioCopyFreeDBPlugin 1.0
#
DISCID=740bf808
DTITLE=Gary Moore - 1983 - Live At The Marquee
DYEAR=1983
DGENRE=
TTITLE0=Back On The Streets
TTITLE1=Run To Your Mama
TTITLE2=Dancin'
TTITLE3=She's Got You
TTITLE4=Parisienne Walkways
TTITLE5=You
TTITLE6=Nuclear Attack
TTITLE7=Dallas Warhead
EXTD=
EXTT0=
EXTT1=
EXTT2=
EXTT3=
EXTT4=
EXTT5=
EXTT6=
EXTT7=
PLAYORDER=
